Coordinates
version=1
nRows=6
nColumns=43
inDegrees=yes

Units are S.I. units (second, meters, Newtons, ...)
If the header above contains a line with 'inDegrees', this indicates whether rotational values are in degrees (yes) or radians (no).

endheader
time	pelvis_tilt	pelvis_list	pelvis_rotation	pelvis_tx	pelvis_ty	pelvis_tz	hip_flexion_r	hip_adduction_r	hip_rotation_r	knee_angle_r	knee_angle_r_beta	socket_rotation_r	socket_piston_r	SP_rotation_r	ankle_angle_r	ankle_evert_r	ankle_ext_rot_r	hip_flexion_l	hip_adduction_l	hip_rotation_l	knee_angle_l	knee_angle_l_beta	ankle_angle_l	subtalar_angle_l	mtp_angle_l	lumbar_extension	lumbar_bending	lumbar_rotation	arm_flex_r	arm_add_r	arm_rot_r	elbow_flex_r	pro_sup_r	wrist_flex_r	wrist_dev_r	arm_flex_l	arm_add_l	arm_rot_l	elbow_flex_l	pro_sup_l	wrist_flex_l	wrist_dev_l
      5.00000000	      1.19109275	     -2.59789761	     -4.50742905	      0.98518262	      0.98035417	     -0.00287131	     -4.96274828	      1.34765327	     10.98087149	     28.60498212	      0.49925112	      0.00000000	      0.00000000	     -0.00000000	     14.04111296	      0.00000000	      9.99997443	     18.52855031	     -7.74340195	     -8.69818166	     14.18521678	      0.24757874	     -6.65453231	      0.00000000	      0.00000000	    -10.15894122	     -0.99940597	      6.62610153	     12.56020046	    -18.10238181	      3.67278635	     45.19834927	    131.80768817	      0.00000000	      0.00000000	    -11.21882835	    -13.57041272	    -12.22565616	     29.12836897	    140.80909124	      0.00000000	      0.00000000
      5.00800000	      1.76327228	     -2.52295530	     -4.48428477	      0.98554564	      0.98234456	     -0.00461648	     -4.33234107	      1.33931759	     10.41589956	     31.43038150	      0.54856364	      0.00000000	      0.00000000	      0.00000000	     12.76621780	      0.00000000	      9.99997443	     17.44055635	     -7.54321729	     -8.87920643	     14.55352500	      0.25400693	     -6.25544170	      0.00000000	      0.00000000	    -10.75417071	     -1.21758792	      6.36967947	     11.85677182	    -17.70172372	      3.20264653	     44.87577715	    131.82203989	      0.00000000	      0.00000000	    -10.66877505	    -13.77213979	    -12.04161662	     29.59312179	    140.87848575	      0.00000000	      0.00000000
      5.01700000	      0.92823536	     -2.06803073	     -4.97071883	      0.98668262	      0.98333807	     -0.00529085	     -2.00654924	      1.07404534	     10.38056936	     34.43345491	      0.60097716	      0.00000000	      0.00000000	     -0.00000000	     11.11956964	      0.00000000	      9.99997443	     17.61093900	     -7.19360271	     -9.66608809	     14.28923017	      0.24939411	     -6.16309013	      0.00000000	      0.00000000	     -9.49954487	     -1.90854296	      6.34640998	     11.04289796	    -17.13799726	      2.42010094	     44.67360179	    131.89959791	      0.00000000	      0.00000000	    -10.68329639	    -14.19287229	    -11.95218393	     30.11285378	    141.04420855	      0.00000000	      0.00000000
      5.02500000	      0.22930558	     -1.96044273	     -5.20410171	      0.98586869	      0.98373176	     -0.00666001	      0.53276008	      1.15043707	      9.72087506	     37.89173081	      0.66133546	      0.00000000	      0.00000000	      0.00000000	      9.94946328	      0.00000000	      9.99997443	     17.94484165	     -7.07205939	     -9.48521721	     14.32298016	      0.24998316	     -5.81072035	      0.00000000	      0.00000000	     -8.68492224	     -1.99003678	      6.39156605	     10.56895832	    -16.74024227	      1.83859860	     44.22682331	    133.00471378	      0.00000000	      0.00000000	    -10.10418829	    -14.51319029	    -11.18802658	     30.47528895	    141.08738869	      0.00000000	      0.00000000
      5.03300000	      0.67125971	     -1.95072668	     -5.01574165	      0.98562945	      0.98573376	     -0.00839124	      1.48931902	      1.10475550	      8.65134660	     40.63990204	      0.70930010	      0.00000000	      0.00000000	      0.00000000	      8.85317050	      0.00000000	      9.99997443	     16.82620569	     -6.84803393	     -9.65924992	     14.12106446	      0.24645907	     -5.45717925	      0.00000000	      0.00000000	     -9.21743053	     -2.11003930	      5.80631596	     10.14287882	    -16.30665779	      1.36472153	     43.99754535	    132.88227422	      0.00000000	      0.00000000	     -9.53980534	    -14.74219929	    -11.26957373	     30.92897763	    141.08475883	      0.00000000	      0.00000000
      5.04200000	      0.21430751	     -1.15902714	     -5.31222154	      0.98602952	      0.98633334	     -0.00991689	      3.63360700	      0.22096745	      7.94368445	     43.70318498	      0.76276447	      0.00000000	      0.00000000	      0.00000000	      7.19909366	      0.00000000	      9.99997443	     16.58379413	     -5.89760747	     -9.64094582	     13.71323036	      0.23934102	     -5.58499304	      0.00000000	      0.00000000	     -8.29014572	     -2.96812103	      5.35086871	      9.63269421	    -15.75162725	      1.41148890	     42.84254680	    132.58962452	      0.00000000	      0.00000000	     -9.77986085	    -15.23141157	    -10.80680171	     31.97421333	    140.52209826	      0.00000000	      0.00000000
